<svg width="150" height="150" viewBox="0 0 150 150" fill="none" xmlns="http://www.w3.org/2000/svg">
<path d="M75 6.25C89.9184 6.25 104.226 12.1763 114.775 22.7252C125.324 33.2742 131.25 47.5816 131.25 62.5C131.25 85.7875 113.5 110.187 78.75 136.25C77.6682 137.061 76.3523 137.5 75 137.5C73.6477 137.5 72.3318 137.061 71.25 136.25C36.5 110.187 18.75 85.7875 18.75 62.5C18.75 47.5816 24.6763 33.2742 35.2252 22.7252C45.7742 12.1763 60.0816 6.25 75 6.25ZM75 43.75C70.0272 43.75 65.2581 45.7254 61.7417 49.2417C58.2254 52.7581 56.25 57.5272 56.25 62.5C56.25 67.4728 58.2254 72.2419 61.7417 75.7583C65.2581 79.2746 70.0272 81.25 75 81.25C79.9728 81.25 84.7419 79.2746 88.2583 75.7583C91.7746 72.2419 93.75 67.4728 93.75 62.5C93.75 57.5272 91.7746 52.7581 88.2583 49.2417C84.7419 45.7254 79.9728 43.75 75 43.75Z" fill="white"/>
</svg>
